<?xml version="1.0" encoding="UTF-8" standalone="no"?>
<svg
   class="icon"
   height="24"
   viewBox="0 0 24 24"
   width="24"
   style="fill:#ffffff"
   version="1.1"
   id="svg1"
   sodipodi:docname="skills_GitHub.svg"
   inkscape:version="1.3 (0e150ed6c4, 2023-07-21)"
   xmlns:inkscape="http://www.inkscape.org/namespaces/inkscape"
   xmlns:sodipodi="http://sodipodi.sourceforge.net/DTD/sodipodi-0.dtd"
   xmlns="http://www.w3.org/2000/svg"
   xmlns:svg="http://www.w3.org/2000/svg">
  <defs
     id="defs1" />
  <sodipodi:namedview
     id="namedview1"
     pagecolor="#505050"
     bordercolor="#ffffff"
     borderopacity="1"
     inkscape:showpageshadow="0"
     inkscape:pageopacity="0"
     inkscape:pagecheckerboard="1"
     inkscape:deskcolor="#505050"
     inkscape:zoom="11.446291"
     inkscape:cx="0.087364544"
     inkscape:cy="12.798906"
     inkscape:window-width="1920"
     inkscape:window-height="991"
     inkscape:window-x="-9"
     inkscape:window-y="-9"
     inkscape:window-maximized="1"
     inkscape:current-layer="svg1" />
  <path
     d="M 12.009932,0 C 5.3687505,0 1.6589256e-6,5.4083278 1.6589256e-6,12.099167 c 0,5.348344 3.4399423410744,9.875607 8.2120540410744,11.477947 0.596637,0.120458 0.8151825,-0.260338 0.8151825,-0.580658 0,-0.280496 -0.019668,-1.241949 -0.019668,-2.243719 C 5.6666992,21.474012 4.9709915,19.310435 4.9709915,19.310435 4.434092,17.908203 3.6385762,17.547811 3.6385762,17.547811 c -1.0934655,-0.741186 0.07965,-0.741186 0.07965,-0.741186 1.2129405,0.08014 1.8494025,1.241948 1.8494025,1.241948 1.073553,1.842765 2.8034802,1.322091 3.4994337,1.001524 0.099317,-0.781257 0.4176705,-1.32209 0.755691,-1.622498 -2.6645847,-0.280496 -5.4680652,-1.32209 -5.4680652,-5.969565 0,-1.32209 0.4769162,-2.4037557 1.232607,-3.2449965 -0.119229,-0.300408 -0.5368995,-1.5426027 0.119475,-3.2051717 0,0 1.0140615,-0.3205663 3.300555,1.2419487 a 11.54678,11.54678 0 0 1 3.0026058,-0.400708 c 1.014061,0 2.047789,0.1403708 3.002359,0.400708 2.286739,-1.562515 3.300801,-1.2419487 3.300801,-1.2419487 0.656374,1.662569 0.238458,2.9047637 0.119229,3.2051717 0.775603,0.8412408 1.232853,1.9229065 1.232853,3.2449965 0,4.647475 -2.803481,5.668911 -5.487978,5.969565 0.437583,0.38055 0.815182,1.101578 0.815182,2.243473 0,1.622498 -0.01967,2.924676 -0.01967,3.325138 0,0.320566 0.218791,0.701362 0.815182,0.581149 4.772114,-1.602831 8.212056,-6.129848 8.212056,-11.478192 C 24.019615,5.4083278 18.6312,0 12.009932,0 Z"
     id="path1"
     style="stroke-width:0.25" />
</svg>
