<?xml version="1.0" encoding="UTF-8" standalone="no"?>
<svg
   height="24"
   viewBox="0 -960 480 480"
   width="24"
   fill="#ffffff"
   version="1.1"
   id="svg1"
   sodipodi:docname="ui_contact_call.svg"
   inkscape:version="1.3 (0e150ed6c4, 2023-07-21)"
   xmlns:inkscape="http://www.inkscape.org/namespaces/inkscape"
   xmlns:sodipodi="http://sodipodi.sourceforge.net/DTD/sodipodi-0.dtd"
   xmlns="http://www.w3.org/2000/svg"
   xmlns:svg="http://www.w3.org/2000/svg">
  <defs
     id="defs1" />
  <sodipodi:namedview
     id="namedview1"
     pagecolor="#505050"
     bordercolor="#ffffff"
     borderopacity="1"
     inkscape:showpageshadow="0"
     inkscape:pageopacity="0"
     inkscape:pagecheckerboard="1"
     inkscape:deskcolor="#505050"
     inkscape:zoom="16.1875"
     inkscape:cx="23.969112"
     inkscape:cy="23.938224"
     inkscape:window-width="1920"
     inkscape:window-height="991"
     inkscape:window-x="-9"
     inkscape:window-y="-9"
     inkscape:window-maximized="1"
     inkscape:current-layer="svg1" />
  <path
     d="m 420.62257,-500 q -69.68093,0 -140.98833,-33.09987 -71.30739,-33.09986 -132.0856,-93.87807 Q 86.770426,-687.75616 53.385215,-759.35461 20,-830.95305 20,-900.05189 20,-916.84721 31.413747,-928.42076 42.827498,-940 59.377433,-940 h 79.896237 q 17.69131,0 28.81971,9.41635 11.12841,9.41634 15.12322,27.10765 l 15.36861,62.57016 q 2.3227,15.04332 -0.81607,26.45707 -3.1388,11.41375 -12.40105,19.53463 l -59.22023,54.08405 q 12.55512,20.54475 26.8223,38.80675 14.2672,18.26199 32.52918,35.38261 18.83269,19.97406 37.95072,34.81194 19.11803,14.83787 39.09209,25.11024 l 57.06875,-57.63943 q 9.70168,-10.27236 21.77172,-13.69648 12.07003,-3.42414 25.59534,0 l 56.49804,13.1258 q 17.69131,5.13618 27.10768,16.57276 Q 460,-636.91362 460,-619.84436 v 80.46693 q 0,16.87523 -11.61921,28.12919 Q 436.76731,-500 420.62257,-500 Z M 99.32555,-788.19714 144.98054,-830.9987 132.42543,-885.78469 H 74.78599 q 0.57069,20.54474 5.969393,44.19403 5.392998,23.64928 18.570167,53.39352 z m 212.29572,209.44227 q 20.54474,9.70169 45.36965,15.97925 24.8249,6.27757 48.79377,7.98963 v -58.67808 L 355.5642,-624.40985 Z M 99.32555,-788.19714 Z m 212.29572,209.44227 z"
     id="path1"
     style="stroke-width:0.570689" />
</svg>
