<?xml version="1.0" encoding="UTF-8" standalone="no"?>
<svg
   class="icon"
   height="24"
   viewBox="0 0 24 24"
   width="24"
   version="1.1"
   id="svg2"
   inkscape:version="1.3 (0e150ed6c4, 2023-07-21)"
   sodipodi:docname="LinkedIn.svg"
   xmlns:inkscape="http://www.inkscape.org/namespaces/inkscape"
   xmlns:sodipodi="http://sodipodi.sourceforge.net/DTD/sodipodi-0.dtd"
   xmlns="http://www.w3.org/2000/svg"
   xmlns:svg="http://www.w3.org/2000/svg">
  <defs
     id="defs2" />
  <sodipodi:namedview
     id="namedview2"
     pagecolor="#505050"
     bordercolor="#ffffff"
     borderopacity="1"
     inkscape:showpageshadow="0"
     inkscape:pageopacity="0"
     inkscape:pagecheckerboard="1"
     inkscape:deskcolor="#505050"
     inkscape:zoom="7.6308607"
     inkscape:cx="42.590215"
     inkscape:cy="43.573066"
     inkscape:window-width="1920"
     inkscape:window-height="991"
     inkscape:window-x="-9"
     inkscape:window-y="-9"
     inkscape:window-maximized="1"
     inkscape:current-layer="svg2" />
  <path
     id="path3"
     style="fill:#ffffff;stroke-width:0.333333"
     d="M 2.6666667,0 C 2.5746194,0 2.4835256,0.0045679 2.3938802,0.01367187 2.3042349,0.02277586 2.2163539,0.0362753 2.1295573,0.05403646 2.0427607,0.07179762 1.957199,0.09382014 1.8736979,0.11979167 1.7901969,0.1457632 1.708665,0.17590031 1.6289063,0.20963542 1.5491475,0.24337052 1.4714029,0.28056271 1.3958333,0.32161458 1.3202637,0.36266647 1.2467149,0.40780733 1.1757813,0.45572917 1.1048476,0.503651 1.036554,0.55437893 0.97070313,0.60872397 0.90485223,0.66306893 0.84157133,0.72092867 0.78125,0.78125 0.72092867,0.84157133 0.66306893,0.90485223 0.60872397,0.97070313 0.55437893,1.036554 0.503651,1.1048476 0.45572917,1.1757813 0.40780733,1.2467149 0.36266647,1.3202637 0.32161458,1.3958333 0.28056271,1.4714029 0.24337052,1.5491475 0.20963542,1.6289063 0.17590031,1.708665 0.1457632,1.7901969 0.11979167,1.8736979 0.09382014,1.957199 0.07179762,2.0427607 0.05403646,2.1295573 0.0362753,2.2163539 0.02277586,2.3042349 0.01367187,2.3938802 0.0045679,2.4835256 0,2.5746194 0,2.6666667 V 21.333333 c 0,0.09205 0.0045679,0.183142 0.01367187,0.272787 0.009104,0.08965 0.02260343,0.177526 0.04036459,0.264323 0.01776113,0.0868 0.03978368,0.172358 0.06575521,0.255859 0.0259715,0.0835 0.0561086,0.165033 0.0898437,0.244792 0.0337351,0.07976 0.0709273,0.157503 0.11197916,0.233073 0.0410519,0.07557 0.0861928,0.149118 0.13411459,0.220052 0.0479218,0.07093 0.0986498,0.139227 0.1529948,0.205078 0.054345,0.06585 0.1122047,0.129132 0.17252603,0.189453 0.0603213,0.06032 0.12360223,0.118181 0.18945313,0.172526 0.0658509,0.05434 0.13414442,0.105073 0.20507812,0.152995 0.070934,0.04792 0.1444824,0.09306 0.220052,0.134114 0.07557,0.04105 0.1533142,0.07824 0.233073,0.11198 0.079759,0.03374 0.1612906,0.06387 0.2447916,0.08984 0.083501,0.02597 0.1690629,0.04799 0.2558595,0.06576 0.086797,0.01776 0.1746775,0.03126 0.2643229,0.04036 C 2.4835256,23.995432 2.5746194,24 2.6666667,24 H 21.333333 c 0.09205,0 0.183142,-0.0046 0.272787,-0.01367 0.08965,-0.0091 0.177526,-0.0226 0.264323,-0.04036 0.0868,-0.01776 0.172358,-0.03978 0.255859,-0.06576 0.0835,-0.02597 0.165033,-0.05611 0.244792,-0.08984 0.07976,-0.03374 0.157503,-0.07093 0.233073,-0.111979 0.07557,-0.04105 0.149118,-0.08619 0.220052,-0.134115 0.07093,-0.04792 0.139227,-0.09865 0.205078,-0.152994 0.06585,-0.05435 0.129132,-0.112205 0.189453,-0.172526 0.06032,-0.06032 0.118181,-0.123603 0.172526,-0.189453 0.05434,-0.06585 0.105073,-0.134145 0.152995,-0.205079 0.04792,-0.07093 0.09306,-0.144482 0.134114,-0.220052 0.04105,-0.07557 0.07824,-0.153314 0.11198,-0.233073 0.03374,-0.07976 0.06387,-0.16129 0.08984,-0.244791 0.02597,-0.0835 0.04799,-0.169063 0.06576,-0.25586 0.01776,-0.0868 0.03126,-0.174677 0.04036,-0.264323 C 23.995432,21.516476 24,21.425381 24,21.333333 V 2.6666667 C 24,2.5746197 23.9954,2.4835256 23.98633,2.3938802 23.97723,2.3042352 23.96373,2.2163539 23.94597,2.1295573 23.92821,2.0427603 23.90619,1.957199 23.88021,1.8736979 23.85424,1.7901969 23.8241,1.708665 23.79037,1.6289063 23.75663,1.5491473 23.71944,1.4714029 23.67839,1.3958333 23.63734,1.3202633 23.5922,1.2467149 23.544276,1.1757813 23.496349,1.1048476 23.445621,1.036554 23.391276,0.97070313 23.336931,0.90485223 23.279071,0.84157133 23.21875,0.78125 23.158429,0.72092867 23.095148,0.66306893 23.029297,0.60872397 22.963446,0.55437893 22.895152,0.503651 22.824219,0.45572917 22.753285,0.40780733 22.679736,0.36266647 22.604167,0.32161458 22.528597,0.28056271 22.450853,0.24337052 22.371094,0.20963542 22.291335,0.17590031 22.209803,0.1457632 22.126302,0.11979167 22.042801,0.09382014 21.957239,0.07179762 21.870443,0.05403646 21.783646,0.0362753 21.695765,0.02277586 21.60612,0.01367187 21.516475,0.0045679 21.425381,0 21.333333,0 Z m 2.783203,3.3333333 c 0.073069,0 0.144991,0.00379 0.216146,0.011067 0.071155,0.00728 0.141399,0.018347 0.2102863,0.032553 0.068888,0.014203 0.1368587,0.031313 0.203125,0.052083 0.066266,0.02077 0.1307193,0.044637 0.1940103,0.071615 0.063292,0.026977 0.1249334,0.057015 0.184896,0.089844 0.059963,0.03283 0.1181994,0.068449 0.1744794,0.106771 0.05628,0.038322 0.111167,0.079589 0.1634113,0.123047 0.052244,0.043457 0.1018853,0.089133 0.1497397,0.1373697 0.047854,0.048236 0.093608,0.099035 0.1367186,0.1516926 0.043111,0.052657 0.083732,0.1073417 0.1217447,0.1640624 0.038013,0.056721 0.073558,0.1153543 0.10612,0.1757813 0.032563,0.060427 0.062435,0.122422 0.089193,0.186198 0.026757,0.063776 0.050365,0.1291963 0.070963,0.1959637 0.0206,0.066767 0.037997,0.1350256 0.052083,0.204427 0.014087,0.069401 0.02468,0.1399106 0.0319,0.2115886 0.00722,0.071677 0.011067,0.1445024 0.011067,0.2180987 0,0.073597 -0.00385,0.1464213 -0.011067,0.218099 C 7.547466,5.7552723 7.536873,5.8257816 7.522786,5.895183 7.5086997,5.964584 7.491303,6.0328423 7.470703,6.0996097 7.450103,6.166377 7.4264967,6.2317973 7.3997397,6.2955733 7.372983,6.3593493 7.343109,6.4213443 7.310547,6.481771 7.2779837,6.5421983 7.2424403,6.6008313 7.204427,6.6575523 7.166414,6.7142733 7.125793,6.7696087 7.0826823,6.822266 7.0395717,6.8749233 6.9938173,6.9250713 6.9459637,6.9733077 6.8981093,7.021544 6.848468,7.067871 6.796224,7.1113283 6.7439797,7.154786 6.6890927,7.1954027 6.6328127,7.2337243 6.5765327,7.272046 6.518296,7.3076667 6.4583333,7.340495 6.3983703,7.373325 6.336729,7.403361 6.2734373,7.430339 6.2101463,7.457316 6.1456933,7.481184 6.079427,7.501953 6.013161,7.522723 5.9451897,7.540484 5.876302,7.554687 5.807415,7.56889 5.7371703,7.579957 5.6660157,7.58724 5.5948607,7.59452 5.5229383,7.598307 5.4498697,7.598307 5.3768017,7.598307 5.304232,7.594517 5.233073,7.58724 5.161914,7.579961 5.0923323,7.568891 5.0234373,7.5546877 4.9545423,7.5404843 4.8865893,7.522721 4.8203127,7.5019533 4.7540353,7.4811833 4.6889557,7.4573163 4.625651,7.430339 4.5623463,7.4033623 4.5007327,7.3733233 4.4407553,7.340495 4.3807773,7.307665 4.322573,7.272046 4.266276,7.2337243 4.2099793,7.1954027 4.155777,7.154786 4.1035157,7.1113283 4.051254,7.067871 4.000997,7.021544 3.953125,6.9733077 3.905253,6.9250713 3.8595343,6.8749233 3.8164063,6.822266 3.7732783,6.7696087 3.732691,6.7142733 3.6946613,6.6575523 3.6566317,6.6008313 3.6211187,6.5421983 3.5885417,6.481771 3.555965,6.4213443 3.5261193,6.3593493 3.499349,6.2955733 3.472579,6.2317973 3.4489947,6.166377 3.4283853,6.0996097 3.4077753,6.0328423 3.390396,5.964584 3.376302,5.8951827 3.3622087,5.8257813 3.3516253,5.7552717 3.344402,5.683594 3.337176,5.6119157 3.3333333,5.5390917 3.3333333,5.4654947 c 0,-0.073596 0.00384,-0.1464214 0.011067,-0.2180987 0.00722,-0.071678 0.017807,-0.1421873 0.0319,-0.2115887 0.014093,-0.069401 0.031473,-0.13766 0.052083,-0.204427 0.02061,-0.066767 0.044193,-0.1321876 0.070964,-0.1959636 0.02677,-0.063776 0.056616,-0.1257707 0.089193,-0.186198 0.032577,-0.060427 0.06809,-0.1190607 0.1061196,-0.1757814 0.03803,-0.056721 0.078617,-0.111405 0.121745,-0.1640623 C 3.8595323,4.0567177 3.905251,4.0059187 3.953123,3.9576823 4.000995,3.909446 4.051252,3.86377 4.1035137,3.8203127 4.155775,3.7768547 4.2099773,3.7355873 4.266274,3.6972657 4.322571,3.658944 4.3807753,3.6233233 4.4407533,3.5904947 4.5007307,3.557668 4.5623443,3.5276287 4.625649,3.500651 4.6889537,3.4736743 4.7540333,3.4498057 4.8203107,3.4290363 4.8865873,3.4082663 4.9545403,3.3911567 5.0234353,3.376953 5.0923303,3.3627497 5.161912,3.351683 5.233071,3.3443997 5.304234,3.337122 5.3768017,3.3333333 5.4498697,3.3333333 Z M 16.460937,8.7578127 c 0.15319,0 0.303681,0.00586 0.451172,0.017577 0.147492,0.011717 0.291666,0.029247 0.432943,0.052734 0.141277,0.023487 0.279517,0.053237 0.414063,0.088542 0.134545,0.035304 0.265932,0.076526 0.393229,0.123698 0.127297,0.047172 0.25026,0.1004157 0.369791,0.159505 0.119532,0.05909 0.235105,0.1242554 0.346355,0.1953127 0.111248,0.071057 0.218513,0.148045 0.320963,0.2311197 0.10245,0.083075 0.200486,0.1717856 0.29362,0.2669273 0.09313,0.095142 0.181022,0.1967766 0.264323,0.3040356 0.0833,0.107259 0.162074,0.220418 0.235026,0.339844 0.07295,0.119426 0.140389,0.24466 0.202474,0.376302 0.06209,0.131643 0.118569,0.269503 0.169271,0.413412 0.0507,0.143908 0.09531,0.294295 0.134114,0.45052 0.0388,0.156226 0.07192,0.318388 0.09831,0.48698 0.02638,0.168591 0.04644,0.343081 0.0599,0.524088 0.01345,0.181011 0.02018,0.368377 0.02018,0.56185 v 7.316407 h -3.561198 v -6.065756 c 0,-0.207889 -0.0101,-0.404613 -0.02995,-0.589192 -0.0099,-0.09229 -0.02218,-0.18126 -0.03711,-0.267578 -0.01493,-0.08632 -0.03278,-0.169748 -0.05273,-0.25 -0.01995,-0.08025 -0.04205,-0.157681 -0.06706,-0.231771 -0.02501,-0.07409 -0.0526,-0.145059 -0.08268,-0.212891 -0.03008,-0.06783 -0.06312,-0.132531 -0.09831,-0.19401 -0.03519,-0.06148 -0.07231,-0.119449 -0.112631,-0.174479 -0.04032,-0.05503 -0.08344,-0.107114 -0.128906,-0.155599 -0.04547,-0.04849 -0.09388,-0.09357 -0.144531,-0.135417 -0.05065,-0.04185 -0.103648,-0.08012 -0.159505,-0.115234 -0.05586,-0.03511 -0.114041,-0.06677 -0.175131,-0.09505 -0.06109,-0.02828 -0.125059,-0.05352 -0.191406,-0.07487 -0.06635,-0.02135 -0.135401,-0.03905 -0.207031,-0.05339 -0.07163,-0.01433 -0.145718,-0.02534 -0.222656,-0.03255 -0.07694,-0.0072 -0.15666,-0.01042 -0.238933,-0.01042 -0.0895,0 -0.176273,0.0036 -0.260416,0.01107 -0.08414,0.0075 -0.165387,0.01839 -0.244141,0.0332 -0.07875,0.01481 -0.155183,0.03335 -0.228516,0.05534 -0.07333,0.02199 -0.143708,0.04781 -0.211588,0.07682 -0.06788,0.02902 -0.132916,0.06111 -0.195313,0.097 -0.0624,0.0359 -0.122155,0.07522 -0.179036,0.117839 -0.05688,0.04262 -0.111427,0.08882 -0.16276,0.13802 -0.05133,0.0492 -0.09943,0.101281 -0.145183,0.156901 -0.04576,0.05562 -0.08876,0.114539 -0.128906,0.176433 -0.04015,0.06189 -0.07747,0.127296 -0.111979,0.195312 -0.0345,0.06802 -0.06622,0.138902 -0.09505,0.212891 -0.02883,0.07399 -0.055,0.150659 -0.07813,0.230469 -0.02313,0.07981 -0.04315,0.162568 -0.06055,0.248047 -0.01739,0.08548 -0.03199,0.173976 -0.04362,0.264973 -0.01163,0.091 -0.02021,0.184885 -0.02604,0.28125 -0.0058,0.09637 -0.0091,0.195292 -0.0091,0.296875 v 6.065758 H 9.5442707 V 9.111328 h 3.4322923 v 1.55599 c 0,0 0.01647,-0.02982 0.04948,-0.08203 0.03301,-0.05221 0.08286,-0.126634 0.15039,-0.216145 0.06753,-0.08951 0.152287,-0.194101 0.25586,-0.30599 0.103572,-0.1118887 0.226058,-0.2309123 0.367187,-0.3502603 0.07057,-0.059674 0.145673,-0.119644 0.225912,-0.1783854 0.08024,-0.058742 0.165107,-0.1165816 0.255208,-0.172526 0.0901,-0.055944 0.185653,-0.1095253 0.285807,-0.1608073 0.100154,-0.051282 0.20536,-0.099776 0.315755,-0.1445313 0.110397,-0.044756 0.225527,-0.086032 0.346355,-0.122396 0.120828,-0.036364 0.247457,-0.068294 0.378906,-0.094401 0.131449,-0.026107 0.267896,-0.046561 0.410156,-0.060547 0.14226,-0.013987 0.290099,-0.021483 0.443359,-0.021483 z M 3.6777343,9.111328 h 3.578776 v 11.555339 h -3.578776 z" />
</svg>
