<?xml version="1.0" encoding="UTF-8" standalone="no"?>
<svg
   height="24px"
   viewBox="0 -960 960 960"
   width="24px"
   fill="#FFFFFF"
   version="1.1"
   id="svg1"
   sodipodi:docname="ui_pdf.svg"
   inkscape:version="1.3 (0e150ed6c4, 2023-07-21)"
   xmlns:inkscape="http://www.inkscape.org/namespaces/inkscape"
   xmlns:sodipodi="http://sodipodi.sourceforge.net/DTD/sodipodi-0.dtd"
   xmlns="http://www.w3.org/2000/svg"
   xmlns:svg="http://www.w3.org/2000/svg">
  <defs
     id="defs1" />
  <sodipodi:namedview
     id="namedview1"
     pagecolor="#505050"
     bordercolor="#ffffff"
     borderopacity="1"
     inkscape:showpageshadow="0"
     inkscape:pageopacity="0"
     inkscape:pagecheckerboard="1"
     inkscape:deskcolor="#505050"
     inkscape:zoom="32.375"
     inkscape:cx="11.984556"
     inkscape:cy="12"
     inkscape:window-width="1920"
     inkscape:window-height="991"
     inkscape:window-x="-9"
     inkscape:window-y="-9"
     inkscape:window-maximized="1"
     inkscape:current-layer="svg1" />
  <path
     d="m 336,-456 h 48 v -96 h 48 q 20.4,0 34.2,-13.8 13.8,-13.8 13.8,-34.2 v -48 q 0,-20.4 -13.8,-34.2 Q 452.4,-696 432,-696 h -96 z m 48,-144 v -48 h 48 v 48 z m 144,144 h 96 q 20.4,0 34.2,-13.8 13.8,-13.8 13.8,-34.2 v -144 q 0,-20.4 -13.8,-34.2 Q 644.4,-696 624,-696 h -96 z m 48,-48 v -144 h 48 v 144 z m 144,48 h 48 v -96 h 48 v -48 h -48 v -48 h 48 v -48 h -96 z m -432,264 q -39.6,0 -67.8,-28.2 Q 192,-248.4 192,-288 v -576 q 0,-39.6 28.2,-67.8 28.2,-28.2 67.8,-28.2 h 576 q 39.6,0 67.8,28.2 28.2,28.2 28.2,67.8 v 576 q 0,39.6 -28.2,67.8 -28.2,28.2 -67.8,28.2 z m 0,-96 H 864 V -864 H 288 Z M 96,0 Q 56.4,0 28.2,-28.2 0,-56.4 0,-96 V -768 H 96 V -96 H 768 V 0 Z m 192,-864 v 576 z"
     id="path1"
     style="stroke-width:1.2" />
</svg>
